<?xml version="1.0" standalone="no"?><!-- Generator: Gravit.io --><svg xmlns="http://www.w3.org/2000/svg" xmlns:xlink="http://www.w3.org/1999/xlink" style="isolation:isolate" viewBox="0 0 512 512" width="512" height="512"><defs><clipPath id="_clipPath_Q9cMJ9cl1b90ro1OimANLNvn1P69X8Vm"><rect width="512" height="512"/></clipPath></defs><g clip-path="url(#_clipPath_Q9cMJ9cl1b90ro1OimANLNvn1P69X8Vm)"><g><g><g><g><g><g><path d="M 64 0 L 448 0 C 483.323 0 512 28.677 512 64 L 512 448 C 512 483.323 483.323 512 448 512 L 64 512 C 28.677 512 0 483.323 0 448 L 0 64 C 0 28.677 28.677 0 64 0 Z" style="stroke:none;fill:#9EC227;stroke-miterlimit:10;"/><path d="M 320 66.56 L 414.72 66.56 C 431.675 66.56 445.44 80.325 445.44 97.28 L 445.44 259.84 C 445.44 276.795 431.675 290.56 414.72 290.56 L 320 290.56 C 303.045 290.56 289.28 276.795 289.28 259.84 L 289.28 97.28 C 289.28 80.325 303.045 66.56 320 66.56 Z" style="stroke:none;fill:#FFFFFF;stroke-miterlimit:10;"/></g></g></g></g></g></g><path d=" M 34.214 402.611 C 30.977 410.163 36.559 418.56 44.721 418.56 L 96.133 418.56 L 119.024 372.778 L 141.915 418.56 L 262 418.56 C 270.256 418.56 275.745 410.163 272.508 402.611 L 204.209 242.279 L 102.512 242.279 L 34.214 402.611 L 34.214 402.611 Z  M 163.962 66.56 L 142.76 66.56 C 136.896 66.513 132.111 71.298 132.158 77.162 L 132.111 173.089 L 94.21 173.089 C 90.222 173.042 87.455 177.029 88.862 180.782 L 103.591 221.029 L 203.131 221.029 L 217.86 180.782 C 219.22 177.076 216.452 173.089 212.512 173.089 L 174.61 173.089 L 174.563 77.162 C 174.61 71.298 169.873 66.56 163.962 66.56 Z " fill="rgb(255,255,255)"/></g></svg>